<svg width="1200" height="720" viewBox="0 0 1200 720" fill="none" xmlns="http://www.w3.org/2000/svg">
  <defs>
    <linearGradient id="bg" x1="86" y1="40" x2="1114" y2="694" gradientUnits="userSpaceOnUse">
      <stop stop-color="#0B0D12"/>
      <stop offset="1" stop-color="#07080B"/>
    </linearGradient>
    <radialGradient id="r1" cx="0" cy="0" r="1" gradientUnits="userSpaceOnUse" gradientTransform="translate(360 200) rotate(35) scale(520 380)">
      <stop stop-color="#7C3AED" stop-opacity="0.45"/>
      <stop offset="1" stop-color="#7C3AED" stop-opacity="0"/>
    </radialGradient>
    <radialGradient id="r2" cx="0" cy="0" r="1" gradientUnits="userSpaceOnUse" gradientTransform="translate(820 440) rotate(-20) scale(560 420)">
      <stop stop-color="#3B82F6" stop-opacity="0.35"/>
      <stop offset="1" stop-color="#3B82F6" stop-opacity="0"/>
    </radialGradient>
  </defs>
  <rect width="1200" height="720" rx="40" fill="url(#bg)"/>
  <rect width="1200" height="720" rx="40" fill="url(#r1)"/>
  <rect width="1200" height="720" rx="40" fill="url(#r2)"/>

  <g opacity="0.9">
    <rect x="90" y="90" width="1020" height="540" rx="28" stroke="rgba(255,255,255,0.14)" stroke-width="2" fill="rgba(255,255,255,0.03)"/>
    <rect x="130" y="140" width="420" height="24" rx="12" fill="rgba(255,255,255,0.14)"/>
    <rect x="130" y="188" width="280" height="14" rx="7" fill="rgba(255,255,255,0.10)"/>
    <rect x="130" y="222" width="340" height="14" rx="7" fill="rgba(255,255,255,0.10)"/>
    <rect x="130" y="256" width="300" height="14" rx="7" fill="rgba(255,255,255,0.10)"/>

    <rect x="640" y="150" width="430" height="220" rx="20" fill="rgba(255,255,255,0.04)" stroke="rgba(255,255,255,0.10)"/>
    <rect x="670" y="190" width="260" height="14" rx="7" fill="rgba(255,255,255,0.12)"/>
    <rect x="670" y="220" width="320" height="14" rx="7" fill="rgba(255,255,255,0.10)"/>
    <rect x="670" y="250" width="300" height="14" rx="7" fill="rgba(255,255,255,0.10)"/>
    <rect x="670" y="280" width="220" height="14" rx="7" fill="rgba(255,255,255,0.10)"/>

    <rect x="130" y="340" width="940" height="240" rx="20" fill="rgba(255,255,255,0.04)" stroke="rgba(255,255,255,0.10)"/>
    <rect x="160" y="380" width="420" height="16" rx="8" fill="rgba(255,255,255,0.12)"/>
    <rect x="160" y="416" width="520" height="14" rx="7" fill="rgba(255,255,255,0.10)"/>
    <rect x="160" y="446" width="480" height="14" rx="7" fill="rgba(255,255,255,0.10)"/>
    <rect x="160" y="476" width="440" height="14" rx="7" fill="rgba(255,255,255,0.10)"/>
  </g>

  <text x="130" y="120" fill="rgba(255,255,255,0.86)" font-family="ui-sans-serif, system-ui" font-size="20" font-weight="600">
    Atlas Billing · Case Study
  </text>
</svg>

