<svg width="1200" height="720" viewBox="0 0 1200 720" fill="none" xmlns="http://www.w3.org/2000/svg">
  <defs>
    <linearGradient id="bg" x1="54" y1="62" x2="1146" y2="664" gradientUnits="userSpaceOnUse">
      <stop stop-color="#07080B"/>
      <stop offset="1" stop-color="#0B0D12"/>
    </linearGradient>
    <radialGradient id="r1" cx="0" cy="0" r="1" gradientUnits="userSpaceOnUse" gradientTransform="translate(420 220) rotate(18) scale(560 420)">
      <stop stop-color="#22C55E" stop-opacity="0.28"/>
      <stop offset="1" stop-color="#22C55E" stop-opacity="0"/>
    </radialGradient>
    <radialGradient id="r2" cx="0" cy="0" r="1" gradientUnits="userSpaceOnUse" gradientTransform="translate(820 420) rotate(-22) scale(560 440)">
      <stop stop-color="#3B82F6" stop-opacity="0.30"/>
      <stop offset="1" stop-color="#3B82F6" stop-opacity="0"/>
    </radialGradient>
  </defs>
  <rect width="1200" height="720" rx="40" fill="url(#bg)"/>
  <rect width="1200" height="720" rx="40" fill="url(#r1)"/>
  <rect width="1200" height="720" rx="40" fill="url(#r2)"/>

  <g opacity="0.9">
    <rect x="90" y="90" width="1020" height="540" rx="28" stroke="rgba(255,255,255,0.14)" stroke-width="2" fill="rgba(255,255,255,0.03)"/>
    <rect x="130" y="140" width="320" height="18" rx="9" fill="rgba(255,255,255,0.14)"/>
    <rect x="130" y="176" width="220" height="12" rx="6" fill="rgba(255,255,255,0.10)"/>

    <rect x="130" y="220" width="470" height="170" rx="18" fill="rgba(255,255,255,0.04)" stroke="rgba(255,255,255,0.10)"/>
    <rect x="650" y="220" width="420" height="170" rx="18" fill="rgba(255,255,255,0.04)" stroke="rgba(255,255,255,0.10)"/>
    <rect x="160" y="260" width="410" height="12" rx="6" fill="rgba(255,255,255,0.12)"/>
    <rect x="160" y="288" width="360" height="12" rx="6" fill="rgba(255,255,255,0.10)"/>
    <rect x="160" y="316" width="320" height="12" rx="6" fill="rgba(255,255,255,0.10)"/>

    <rect x="680" y="260" width="330" height="12" rx="6" fill="rgba(255,255,255,0.12)"/>
    <rect x="680" y="288" width="280" height="12" rx="6" fill="rgba(255,255,255,0.10)"/>
    <rect x="680" y="316" width="300" height="12" rx="6" fill="rgba(255,255,255,0.10)"/>

    <rect x="130" y="420" width="940" height="180" rx="18" fill="rgba(255,255,255,0.04)" stroke="rgba(255,255,255,0.10)"/>
    <path d="M160 560 C 240 520, 320 540, 400 500 S 560 480, 640 520 S 780 560, 860 520 S 980 500, 1040 540" stroke="rgba(59,130,246,0.75)" stroke-width="4" fill="none"/>
    <path d="M160 540 C 240 560, 320 520, 400 540 S 560 580, 640 520 S 780 480, 860 520 S 980 560, 1040 520" stroke="rgba(34,197,94,0.65)" stroke-width="4" fill="none"/>
  </g>

  <text x="130" y="120" fill="rgba(255,255,255,0.86)" font-family="ui-sans-serif, system-ui" font-size="20" font-weight="600">
    Pulse Dashboard · Case Study
  </text>
</svg>

